<mxfile host="app.diagrams.net" modified="2024-02-06T07:59:47.870Z" agent="Mozilla/5.0 (Windows NT 10.0; Win64; x64) AppleWebKit/537.36 (KHTML, like Gecko) Chrome/121.0.0.0 Safari/537.36" etag="drIsBmEl9lf0HNUcaTEo" version="23.1.1" type="device">
  <diagram name="Side-1" id="M_6rrZ2diby-f0foozvZ">
    <mxGraphModel dx="1500" dy="757" grid="1" gridSize="10" guides="1" tooltips="1" connect="1" arrows="1" fold="1" page="1" pageScale="1" pageWidth="827" pageHeight="1169" math="0" shadow="0">
      <root>
        <mxCell id="0" />
        <mxCell id="1" parent="0" />
        <mxCell id="9GyI2wmewtFSDXP9VZMQ-3" value="" style="rounded=1;whiteSpace=wrap;html=1;fillColor=#dae8fc;strokeColor=#6c8ebf;" vertex="1" parent="1">
          <mxGeometry x="160" y="200" width="430" height="250" as="geometry" />
        </mxCell>
        <mxCell id="9GyI2wmewtFSDXP9VZMQ-2" value="" style="rounded=1;whiteSpace=wrap;html=1;fillColor=#dae8fc;strokeColor=#6c8ebf;" vertex="1" parent="1">
          <mxGeometry x="160" y="570" width="410" height="400" as="geometry" />
        </mxCell>
        <mxCell id="9GyI2wmewtFSDXP9VZMQ-13" value="" style="edgeStyle=orthogonalEdgeStyle;rounded=0;orthogonalLoop=1;jettySize=auto;html=1;" edge="1" parent="1" source="9GyI2wmewtFSDXP9VZMQ-1" target="9GyI2wmewtFSDXP9VZMQ-25">
          <mxGeometry relative="1" as="geometry">
            <mxPoint x="375" y="360" as="targetPoint" />
            <Array as="points">
              <mxPoint x="375" y="330" />
              <mxPoint x="376" y="330" />
              <mxPoint x="376" y="360" />
              <mxPoint x="375" y="360" />
            </Array>
          </mxGeometry>
        </mxCell>
        <mxCell id="9GyI2wmewtFSDXP9VZMQ-14" value="When a new connection is made" style="edgeLabel;html=1;align=center;verticalAlign=middle;resizable=0;points=[];" vertex="1" connectable="0" parent="9GyI2wmewtFSDXP9VZMQ-13">
          <mxGeometry x="-0.07" relative="1" as="geometry">
            <mxPoint as="offset" />
          </mxGeometry>
        </mxCell>
        <mxCell id="9GyI2wmewtFSDXP9VZMQ-1" value="Idle" style="rounded=1;whiteSpace=wrap;html=1;" vertex="1" parent="1">
          <mxGeometry x="315" y="300" width="120" height="60" as="geometry" />
        </mxCell>
        <mxCell id="9GyI2wmewtFSDXP9VZMQ-6" value="State" style="rounded=1;whiteSpace=wrap;html=1;fillColor=#fff2cc;strokeColor=#d6b656;" vertex="1" parent="1">
          <mxGeometry x="760" y="300" width="120" height="60" as="geometry" />
        </mxCell>
        <mxCell id="9GyI2wmewtFSDXP9VZMQ-18" value="" style="rounded=1;whiteSpace=wrap;html=1;fillColor=#dae8fc;strokeColor=#6c8ebf;" vertex="1" parent="1">
          <mxGeometry x="670" y="570" width="290" height="110" as="geometry" />
        </mxCell>
        <mxCell id="9GyI2wmewtFSDXP9VZMQ-31" style="edgeStyle=orthogonalEdgeStyle;rounded=0;orthogonalLoop=1;jettySize=auto;html=1;curved=1;" edge="1" parent="1" source="9GyI2wmewtFSDXP9VZMQ-19" target="9GyI2wmewtFSDXP9VZMQ-22">
          <mxGeometry relative="1" as="geometry">
            <Array as="points">
              <mxPoint x="240" y="690" />
              <mxPoint x="495" y="690" />
            </Array>
          </mxGeometry>
        </mxCell>
        <mxCell id="9GyI2wmewtFSDXP9VZMQ-19" value="Idle" style="rounded=1;whiteSpace=wrap;html=1;" vertex="1" parent="1">
          <mxGeometry x="180" y="720" width="120" height="60" as="geometry" />
        </mxCell>
        <mxCell id="9GyI2wmewtFSDXP9VZMQ-20" value="The blue background signifies a thread&lt;br&gt;" style="shape=note;whiteSpace=wrap;html=1;backgroundOutline=1;darkOpacity=0.05;size=32;" vertex="1" parent="1">
          <mxGeometry x="20" y="290" width="80" height="100" as="geometry" />
        </mxCell>
        <mxCell id="9GyI2wmewtFSDXP9VZMQ-30" style="edgeStyle=orthogonalEdgeStyle;rounded=0;orthogonalLoop=1;jettySize=auto;html=1;curved=1;" edge="1" parent="1" source="9GyI2wmewtFSDXP9VZMQ-22" target="9GyI2wmewtFSDXP9VZMQ-19">
          <mxGeometry relative="1" as="geometry">
            <Array as="points">
              <mxPoint x="495" y="820" />
              <mxPoint x="240" y="820" />
            </Array>
          </mxGeometry>
        </mxCell>
        <mxCell id="9GyI2wmewtFSDXP9VZMQ-34" style="edgeStyle=orthogonalEdgeStyle;rounded=0;orthogonalLoop=1;jettySize=auto;html=1;curved=1;" edge="1" parent="1" source="9GyI2wmewtFSDXP9VZMQ-22" target="9GyI2wmewtFSDXP9VZMQ-33">
          <mxGeometry relative="1" as="geometry" />
        </mxCell>
        <mxCell id="9GyI2wmewtFSDXP9VZMQ-35" value="If client should be disconnected" style="edgeLabel;html=1;align=center;verticalAlign=middle;resizable=0;points=[];" vertex="1" connectable="0" parent="9GyI2wmewtFSDXP9VZMQ-34">
          <mxGeometry x="-0.1136" y="-2" relative="1" as="geometry">
            <mxPoint x="2" y="20" as="offset" />
          </mxGeometry>
        </mxCell>
        <mxCell id="9GyI2wmewtFSDXP9VZMQ-22" value="Handle mqtt request" style="rounded=1;whiteSpace=wrap;html=1;" vertex="1" parent="1">
          <mxGeometry x="435" y="720" width="120" height="60" as="geometry" />
        </mxCell>
        <mxCell id="9GyI2wmewtFSDXP9VZMQ-23" value="Handle&amp;nbsp;" style="rounded=1;whiteSpace=wrap;html=1;" vertex="1" parent="1">
          <mxGeometry x="755" y="595" width="120" height="60" as="geometry" />
        </mxCell>
        <mxCell id="9GyI2wmewtFSDXP9VZMQ-26" value="" style="edgeStyle=orthogonalEdgeStyle;rounded=0;orthogonalLoop=1;jettySize=auto;html=1;" edge="1" parent="1" source="9GyI2wmewtFSDXP9VZMQ-25" target="9GyI2wmewtFSDXP9VZMQ-22">
          <mxGeometry relative="1" as="geometry">
            <Array as="points">
              <mxPoint x="375" y="670" />
              <mxPoint x="495" y="670" />
            </Array>
          </mxGeometry>
        </mxCell>
        <mxCell id="9GyI2wmewtFSDXP9VZMQ-27" style="edgeStyle=orthogonalEdgeStyle;rounded=0;orthogonalLoop=1;jettySize=auto;html=1;" edge="1" parent="1" source="9GyI2wmewtFSDXP9VZMQ-25" target="9GyI2wmewtFSDXP9VZMQ-23">
          <mxGeometry relative="1" as="geometry" />
        </mxCell>
        <mxCell id="9GyI2wmewtFSDXP9VZMQ-25" value="Start thread to handle client&amp;nbsp;" style="rounded=1;whiteSpace=wrap;html=1;" vertex="1" parent="1">
          <mxGeometry x="315" y="590" width="120" height="60" as="geometry" />
        </mxCell>
        <mxCell id="9GyI2wmewtFSDXP9VZMQ-36" style="edgeStyle=orthogonalEdgeStyle;rounded=0;orthogonalLoop=1;jettySize=auto;html=1;entryX=1;entryY=0.5;entryDx=0;entryDy=0;" edge="1" parent="1" source="9GyI2wmewtFSDXP9VZMQ-33" target="9GyI2wmewtFSDXP9VZMQ-1">
          <mxGeometry relative="1" as="geometry">
            <Array as="points">
              <mxPoint x="640" y="900" />
              <mxPoint x="640" y="330" />
            </Array>
          </mxGeometry>
        </mxCell>
        <mxCell id="9GyI2wmewtFSDXP9VZMQ-33" value="Disconnect client" style="rounded=1;whiteSpace=wrap;html=1;" vertex="1" parent="1">
          <mxGeometry x="435" y="870" width="120" height="60" as="geometry" />
        </mxCell>
        <mxCell id="9GyI2wmewtFSDXP9VZMQ-37" value="1" style="text;html=1;strokeColor=none;fillColor=none;align=center;verticalAlign=middle;whiteSpace=wrap;rounded=0;" vertex="1" parent="1">
          <mxGeometry x="170" y="210" width="60" height="30" as="geometry" />
        </mxCell>
        <mxCell id="9GyI2wmewtFSDXP9VZMQ-38" value="n" style="text;html=1;strokeColor=none;fillColor=none;align=center;verticalAlign=middle;whiteSpace=wrap;rounded=0;" vertex="1" parent="1">
          <mxGeometry x="180" y="590" width="60" height="30" as="geometry" />
        </mxCell>
        <mxCell id="9GyI2wmewtFSDXP9VZMQ-39" value="n" style="text;html=1;strokeColor=none;fillColor=none;align=center;verticalAlign=middle;whiteSpace=wrap;rounded=0;" vertex="1" parent="1">
          <mxGeometry x="680" y="580" width="60" height="30" as="geometry" />
        </mxCell>
      </root>
    </mxGraphModel>
  </diagram>
</mxfile>
